<?xml version="1.0" encoding="UTF-8"?>
<svg width="210px" height="220px" viewBox="0 0 210 220" version="1.1" xmlns="http://www.w3.org/2000/svg" xmlns:xlink="http://www.w3.org/1999/xlink">
    <title>invitas-mark</title>
    <g id="Brands" stroke="none" stroke-width="1" fill="none" fill-rule="evenodd">
        <g id="invi" transform="translate(-0.000000, 0.000000)" fill="#000000" fill-rule="nonzero">
            <path d="M2.28154763,37.0905262 L65.2694612,37.0905262 C66.0659573,37.084021 66.8033791,36.6711272 67.2225748,35.996948 L86.4485368,3.40224319 C86.8472218,2.70276901 86.845899,1.84588427 86.4450564,1.14763299 C86.0442138,0.449381713 85.3032383,0.0132135489 84.4954232,0 L21.5075096,0 C20.694036,0.00245660182 19.9413172,0.428958419 19.5238786,1.12395534 L0.297916633,33.688283 C-0.103304793,34.3924524 -0.0990002145,35.2556646 0.309224229,35.9558346 C0.717448672,36.6560046 1.46827333,37.0879593 2.28154763,37.0905262 Z M66.4596398,56.3192757 C67.2060858,56.3356895 67.898949,56.7087948 68.3212012,57.3217223 L68.3212012,57.3217223 L141.990205,163.702576 C142.494614,164.456982 142.494614,165.439099 141.990205,166.193504 L141.990205,166.193504 L109.153482,218.928274 C108.750202,219.593429 108.026632,220 107.246145,220 C106.465658,220 105.742088,219.593429 105.338807,218.928274 L105.338807,218.928274 L0.603090633,59.8430276 C0.146133912,59.1464087 0.106986183,58.2572413 0.500967919,57.5235013 C0.894949654,56.7897613 1.65940702,56.3281334 2.49516943,56.3192757 L2.49516943,56.3192757 L66.4596398,56.3192757 Z M207.724684,56.3496529 C208.555915,56.3545299 209.319146,56.8076198 209.718521,57.5332879 C210.117896,58.258956 210.090625,59.1431135 209.647281,59.8430276 L209.647281,59.8430276 L178.733154,107.504809 C178.340753,108.12461 177.669542,108.515186 176.934452,108.551469 C176.199362,108.587752 175.492625,108.26519 175.040549,107.687072 L175.040549,107.687072 L137.534664,60.3898166 C137.002687,59.7081464 136.903408,58.7857562 137.278237,58.007379 C137.653065,57.2290019 138.437626,56.7283234 139.304674,56.7141789 L139.304674,56.7141789 L207.724684,56.3496529 Z" id="invitas-mark"></path>
        </g>
    </g>
</svg>